# xmcd
#
# Track frame offsets:
#	150
#	16825
#	44234
#	62913
#	76379
#	96267
#	114380
#	130406
#	149546
#	168813
#	191101
#	207204
#	226333
#	241037
#
# Disc length: 3451 seconds
#
# Revision: 2
# Processed by: cddbd v1.4PL0 Copyright (c) Steve Scherf et al.
# Submitted via: audiograbber 1.80
#
DISCID=c20d790e
DTITLE=Faith Hill - There You'll Be
DYEAR=1900
DGENRE=
TTITLE0=There You'll Be
TTITLE1=This Kiss
TTITLE2=Breathe
TTITLE3=The Way You Love Me
TTITLE4=Let Me Let Go?
TTITLE5=Piece Of My Heart
TTITLE6=If My Heart Had Wings
TTITLE7=There Will Come A Day
TTITLE8=Love Will Always Win
TTITLE9=My Wild Frontier
TTITLE10=You Give Me Love
TTITLE11=Somewhere Down The Road
TTITLE12=Somewhere Over The Rainbow
TTITLE13=Breathe
EXTD=
EXTT0=
EXTT1=Pop Radio Version
EXTT2=Pop Remix
EXTT3=Love To Infinity Remix Edit
EXTT4=
EXTT5=
EXTT6=Single Version
EXTT7=
EXTT8=
EXTT9=
EXTT10=
EXTT11=
EXTT12=
EXTT13=Tin Tin Out Remix Edit
PLAYORDER=
